<?xml version="1.0" encoding="UTF-8"?>
<svg width="148px" height="15px" viewBox="0 0 148 15" version="1.1" xmlns="http://www.w3.org/2000/svg" xmlns:xlink="http://www.w3.org/1999/xlink">
    <!-- Generator: Sketch 52.6 (67491) - http://www.bohemiancoding.com/sketch -->
    <title>Group 28</title>
    <desc>Created with Sketch.</desc>
    <defs>
        <polygon id="path-1" points="0 14.8303289 147.777204 14.8303289 147.777204 0.000106666667 0 0.000106666667"></polygon>
    </defs>
    <g id="Page-1" stroke="none" stroke-width="1" fill="none" fill-rule="evenodd">
        <g id="Desktop-HD" transform="translate(-177.000000, -44.000000)">
            <g id="Group-28" transform="translate(177.000000, 44.000000)">
                <path d="M1.33535962,7.47388444 L7.50998327,7.47388444 C9.21985185,7.47388444 10.9863035,6.78944 10.9863035,4.35032889 C10.9863035,1.22499556 8.48250418,1.22499556 7.29779689,1.22499556 L1.33535962,1.22499556 L1.33535962,7.47388444 Z M0.442408602,0.444551111 L7.66558662,0.444551111 C9.607092,0.444551111 11.8792545,1.12721778 11.8792545,4.31121778 C11.8792545,6.65255111 10.5601625,8.25432889 7.52943369,8.25432889 L1.33535962,8.25432889 L1.33535962,14.3858844 L0.442408602,14.3858844 L0.442408602,0.444551111 Z" id="Fill-1" fill="#6d6e71"></path>
                <path d="M1.33535962,7.47388444 L7.50998327,7.47388444 C9.21985185,7.47388444 10.9863035,6.78944 10.9863035,4.35032889 C10.9863035,1.22499556 8.48250418,1.22499556 7.29779689,1.22499556 L1.33535962,1.22499556 L1.33535962,7.47388444 Z M0.442408602,0.444551111 L7.66558662,0.444551111 C9.607092,0.444551111 11.8792545,1.12721778 11.8792545,4.31121778 C11.8792545,6.65255111 10.5601625,8.25432889 7.52943369,8.25432889 L1.33535962,8.25432889 L1.33535962,14.3858844 L0.442408602,14.3858844 L0.442408602,0.444551111 Z" id="Stroke-3" stroke="#6d6e71" stroke-width="0.5"></path>
                <path d="M22.3292569,9.11388444 L29.2818973,9.11388444 L25.8055771,1.45877333 L22.3292569,9.11388444 Z M25.2998662,0.443662222 L26.3112879,0.443662222 L32.6804158,14.3849956 L31.6707622,14.3849956 L29.6320048,9.89432889 L21.9791493,9.89432889 L19.9403919,14.3849956 L18.9307384,14.3849956 L25.2998662,0.443662222 Z" id="Fill-5" fill="#6d6e71"></path>
                <path d="M22.3292569,9.11388444 L29.2818973,9.11388444 L25.8055771,1.45877333 L22.3292569,9.11388444 Z M25.2998662,0.443662222 L26.3112879,0.443662222 L32.6804158,14.3849956 L31.6707622,14.3849956 L29.6320048,9.89432889 L21.9791493,9.89432889 L19.9403919,14.3849956 L18.9307384,14.3849956 L25.2998662,0.443662222 Z" id="Stroke-7" stroke="#6d6e71" stroke-width="0.5"></path>
                <polygon id="Fill-9" fill="#6d6e71" points="43.3362389 0.444373333 44.462595 0.444373333 54.8137539 13.1359289 54.8526547 13.1359289 54.8526547 0.444373333 55.7456057 0.444373333 55.7456057 14.3857067 54.6192497 14.3857067 44.2680908 1.69415111 44.22919 1.69415111 44.22919 14.3857067 43.3362389 14.3857067"></polygon>
                <polygon id="Stroke-11" stroke="#6d6e71" stroke-width="0.5" points="43.3362389 0.444373333 44.462595 0.444373333 54.8137539 13.1359289 54.8526547 13.1359289 54.8526547 0.444373333 55.7456057 0.444373333 55.7456057 14.3857067 54.6192497 14.3857067 44.2680908 1.69415111 44.22919 1.69415111 44.22919 14.3857067 43.3362389 14.3857067"></polygon>
                <path d="M68.6728841,13.6047289 L74.2852139,13.6047289 C77.3336249,13.6047289 79.5863369,11.7113956 79.5863369,7.41450667 C79.5863369,3.00206222 77.3530753,1.22606222 74.0712593,1.22606222 L68.6728841,1.22606222 L68.6728841,13.6047289 Z M67.7799331,0.44384 L74.2657634,0.44384 C77.5475795,0.44384 80.4810562,2.02606222 80.4810562,7.41450667 C80.4810562,11.4962844 78.42108,14.3851733 74.1101601,14.3851733 L67.7799331,14.3851733 L67.7799331,0.44384 Z" id="Fill-13" fill="#6d6e71"></path>
                <path d="M68.6728841,13.6047289 L74.2852139,13.6047289 C77.3336249,13.6047289 79.5863369,11.7113956 79.5863369,7.41450667 C79.5863369,3.00206222 77.3530753,1.22606222 74.0712593,1.22606222 L68.6728841,1.22606222 L68.6728841,13.6047289 Z M67.7799331,0.44384 L74.2657634,0.44384 C77.5475795,0.44384 80.4810562,2.02606222 80.4810562,7.41450667 C80.4810562,11.4962844 78.42108,14.3851733 74.1101601,14.3851733 L67.7799331,14.3851733 L67.7799331,0.44384 Z" id="Stroke-15" stroke="#6d6e71" stroke-width="0.5"></path>
                <polygon id="Fill-17" fill="#6d6e71" points="89.8821505 0.444373333 91.1252091 0.444373333 96.7569892 7.68881778 102.505472 0.444373333 103.631828 0.444373333 97.2043489 8.52792889 97.2043489 14.3857067 96.3113978 14.3857067 96.3113978 8.52792889"></polygon>
                <polygon id="Stroke-19" stroke="#6d6e71" stroke-width="0.5" points="89.8821505 0.444373333 91.1252091 0.444373333 96.7569892 7.68881778 102.505472 0.444373333 103.631828 0.444373333 97.2043489 8.52792889 97.2043489 14.3857067 96.3113978 14.3857067 96.3113978 8.52792889"></polygon>
                <mask id="mask-2" fill="white">
                    <use xlink:href="#path-1"></use>
                </mask>
                <g id="Clip-22"></g>
                <polygon id="Fill-21" fill="#6d6e71" mask="url(#mask-2)" points="111.588817 14.3858844 112.598471 14.3858844 112.598471 12.4338844 111.588817 12.4338844"></polygon>
                <polygon id="Stroke-23" stroke="#6d6e71" stroke-width="0.5" mask="url(#mask-2)" points="111.588817 14.3858844 112.598471 14.3858844 112.598471 12.4338844 111.588817 12.4338844"></polygon>
                <path d="M125.434332,9.11388444 L132.386973,9.11388444 L128.910652,1.45877333 L125.434332,9.11388444 Z M128.404941,0.443662222 L129.416363,0.443662222 L135.785491,14.3849956 L134.775838,14.3849956 L132.73708,9.89432889 L125.084225,9.89432889 L123.045467,14.3849956 L122.035814,14.3849956 L128.404941,0.443662222 Z" id="Fill-24" fill="#6d6e71" mask="url(#mask-2)"></path>
                <path d="M125.434332,9.11388444 L132.386973,9.11388444 L128.910652,1.45877333 L125.434332,9.11388444 Z M128.404941,0.443662222 L129.416363,0.443662222 L135.785491,14.3849956 L134.775838,14.3849956 L132.73708,9.89432889 L125.084225,9.89432889 L123.045467,14.3849956 L122.035814,14.3849956 L128.404941,0.443662222 Z" id="Stroke-25" stroke="#6d6e71" stroke-width="0.5" mask="url(#mask-2)"></path>
                <polygon id="Fill-26" fill="#6d6e71" mask="url(#mask-2)" points="146.44043 14.3858844 147.333381 14.3858844 147.333381 0.444551111 146.44043 0.444551111"></polygon>
                <polygon id="Stroke-27" stroke="#6d6e71" stroke-width="0.5" mask="url(#mask-2)" points="146.44043 14.3858844 147.333381 14.3858844 147.333381 0.444551111 146.44043 0.444551111"></polygon>
            </g>
        </g>
    </g>
</svg>
