<?xml version="1.0" encoding="utf-8"?>
<!-- Generator: Adobe Illustrator 17.0.0, SVG Export Plug-In . SVG Version: 6.00 Build 0)  -->
<!DOCTYPE svg PUBLIC "-//W3C//DTD SVG 1.1//EN" "http://www.w3.org/Graphics/SVG/1.1/DTD/svg11.dtd">
<svg version="1.1" id="Layer_1" xmlns="http://www.w3.org/2000/svg" xmlns:xlink="http://www.w3.org/1999/xlink" x="0px" y="0px"
	 width="122.45px" height="27.508px" viewBox="0 0 122.45 27.508" enable-background="new 0 0 122.45 27.508" xml:space="preserve">
<g>
	<path fill="#E4E5E6" d="M39.572,10.167h-4.335v8.342h1.005V15.06h3.253c1.722,0,2.71-0.9,2.71-2.469
		C42.205,11.027,41.27,10.167,39.572,10.167z M36.242,14.121v-3.015h3.122c0.889,0,1.836,0.117,1.836,1.507
		c0,1.246-0.933,1.507-1.716,1.507H36.242z"/>
	<path fill="#E4E5E6" d="M49.385,10.167l-3.833,8.342h1.122l1.153-2.526h4.006l1.153,2.526h1.122l-3.833-8.342H49.385z
		 M48.254,15.043l1.577-3.454l1.577,3.454H48.254z"/>
	<polygon fill="#E4E5E6" points="66.008,16.883 60.5,10.167 59.495,10.167 59.495,18.508 60.5,18.508 60.5,11.792 66.008,18.508 
		67.013,18.508 67.013,10.167 66.008,10.167 	"/>
	<path fill="#E4E5E6" d="M77.237,10.167h-3.918v8.342h3.83c2.412,0,3.853-1.559,3.853-4.171
		C81.001,10.89,78.954,10.167,77.237,10.167z M74.324,11.106h2.803c1.904,0,2.869,1.087,2.869,3.231
		c0,2.084-0.976,3.231-2.748,3.231h-2.924V11.106z"/>
	<polygon fill="#E4E5E6" points="89.959,14.088 86.893,10.167 85.549,10.167 89.454,15.051 89.454,18.508 90.459,18.508 
		90.459,15.051 94.365,10.167 93.087,10.167 	"/>
	<rect x="98.095" y="16.91" fill="#E4E5E6" width="1.071" height="1.598"/>
	<path fill="#E4E5E6" d="M107.695,10.167l-3.833,8.342h1.122l1.153-2.526h4.006l1.153,2.526h1.122l-3.833-8.342H107.695z
		 M106.564,15.043l1.577-3.454l1.577,3.454H106.564z"/>
	<rect x="117.805" y="10.167" fill="#E4E5E6" width="1.005" height="8.342"/>
	<path fill="#E4E5E6" d="M23.004,7.188c-0.193-0.324-1.233-1.315-1.522-1.477c-0.483-0.385-0.998-0.735-1.549-1.041
		C17.35,3.234,14.362,2.889,11.519,3.7C8.679,4.512,6.323,6.382,4.886,8.964c-1.435,2.583-1.779,5.571-0.968,8.412
		c1.675,5.865,7.809,9.276,13.676,7.602c5.865-1.675,9.275-7.81,7.602-13.675C24.757,9.767,24.006,8.373,23.004,7.188z
		 M5.207,17.008C4.525,14.62,4.774,12.116,5.9,9.918l0.287,9.338c0,0.013,0.003,0.024,0.004,0.038
		C5.774,18.592,5.441,17.827,5.207,17.008z M21.379,17.45l-0.852,0.501c0.438-0.603,0.625-1.384,0.443-2.166l-1.211-5.217
		c1.102,1.875,2.362,4.019,2.362,4.019c0.111,0.189,0.189,0.388,0.237,0.592C22.555,16.045,22.184,16.977,21.379,17.45z
		 M13.127,19.025c-0.357,0.083-0.725,0.022-1.036-0.172c-0.313-0.195-0.532-0.501-0.616-0.862l-1.299-5.598
		c-0.086-0.36-0.024-0.732,0.171-1.045c0.195-0.311,0.497-0.529,0.854-0.612l5.577-1.295c0.357-0.083,0.725-0.02,1.035,0.172
		c0.313,0.195,0.533,0.502,0.617,0.863l1.301,5.599c0.171,0.741-0.29,1.483-1.027,1.655L13.127,19.025z M18.662,19.046L14.6,21.434
		c-0.993,0.584-2.277,0.25-2.861-0.743l-0.532-0.904c0.067,0.051,0.137,0.1,0.212,0.146c0.598,0.374,1.309,0.491,1.996,0.332
		L18.662,19.046z M8.936,12.68l1.245,5.36l-2.425-4.125c-0.284-0.482-0.362-1.045-0.223-1.586c0.142-0.541,0.483-0.994,0.966-1.277
		l0.857-0.503c-0.03,0.042-0.06,0.081-0.088,0.125C8.893,11.276,8.776,11.989,8.936,12.68z M19.441,6.543
		c0.45-0.014,0.889,0.084,1.282,0.278c0.424,0.346,0.817,0.724,1.172,1.134c0.2,0.365,0.315,0.775,0.327,1.203l0.097,3.12
		l-3.026-5.148c-0.123-0.207-0.265-0.398-0.422-0.57L19.441,6.543z M18.613,8.619c-0.041-0.029-0.081-0.06-0.125-0.087
		c-0.599-0.374-1.31-0.491-1.996-0.332l-5.195,1.207l3.979-2.341c0.994-0.583,2.279-0.25,2.863,0.743
		C18.138,7.81,18.323,8.127,18.613,8.619z M11.888,4.989c2.041-0.582,4.168-0.486,6.117,0.258l-7.447,0.229
		C10.984,5.283,11.428,5.121,11.888,4.989z M7.232,9.62C7.186,8.132,8.359,6.883,9.848,6.839l3.35-0.104L7.82,9.896
		c-0.206,0.122-0.393,0.261-0.567,0.418L7.232,9.62z M8.375,21.097c-0.526-0.493-0.826-1.163-0.849-1.883l-0.099-3.215l3.157,5.371
		c0.093,0.158,0.199,0.303,0.313,0.441l-0.589,0.018C9.586,21.852,8.901,21.592,8.375,21.097z M17.225,23.69
		c-2.324,0.664-4.698,0.416-6.736-0.527l8.682-0.266C18.564,23.224,17.915,23.494,17.225,23.69z M19.901,21.535l-2.983,0.091
		l5.139-3.021c0.161-0.094,0.307-0.202,0.446-0.317l0.014,0.465C22.563,20.241,21.39,21.489,19.901,21.535z M23.812,17.306
		L23.614,10.8c0.11,0.284,0.207,0.575,0.293,0.87C24.455,13.588,24.383,15.537,23.812,17.306z"/>
</g>
</svg>
