<?xml version="1.0" encoding="UTF-8"?>
<svg width="142px" height="116px" viewBox="0 0 142 116" version="1.1" xmlns="http://www.w3.org/2000/svg" xmlns:xlink="http://www.w3.org/1999/xlink">
    <!-- Generator: Sketch 57.1 (83088) - https://sketch.com -->
    <title>Group 6</title>
    <desc>Created with Sketch.</desc>
    <defs>
        <polygon id="path-1" points="0 108.867894 108.734694 108.867894 108.734694 -0.000453061224 0 -0.000453061224"></polygon>
    </defs>
    <g id="Page-1-Copy" stroke="none" stroke-width="1" fill="none" fill-rule="evenodd">
        <g id="Institution-1-Copy-8" transform="translate(-509.000000, -307.000000)">
            <g id="Group-6" transform="translate(510.000000, 308.000000)">
                <g id="Group-4-Copy">
                    <g id="Group-9" transform="translate(33.000000, 7.000000)">
                        <polygon id="Stroke-1" stroke="#0A175E" stroke-width="2" points="106.469388 29.5821796 2.26530612 29.5821796 2.26530612 20.5209551 54.3673469 2.39850612 106.469388 20.5209551"></polygon>
                        <path d="M106.469388,106.602588 L2.26530612,106.602588 L2.26530612,97.5413633 C2.26530612,92.537302 6.32246939,88.4801388 11.3265306,88.4801388 L97.4081633,88.4801388 C102.412224,88.4801388 106.469388,92.537302 106.469388,97.5413633 L106.469388,106.602588 Z" id="Stroke-3" stroke="#0A175E" stroke-width="2"></path>
                        <mask id="mask-2" fill="white">
                            <use xlink:href="#path-1"></use>
                        </mask>
                        <g id="Clip-6"></g>
                        <polygon id="Stroke-5" stroke="#0A175E" stroke-width="2" mask="url(#mask-2)" points="15.8571429 88.4801388 29.4489796 88.4801388 29.4489796 29.5821796 15.8571429 29.5821796"></polygon>
                        <polygon id="Stroke-7" stroke="#0A175E" stroke-width="2" mask="url(#mask-2)" points="47.5714286 88.4801388 61.1632653 88.4801388 61.1632653 29.5821796 47.5714286 29.5821796"></polygon>
                        <polygon id="Stroke-8" stroke="#0A175E" stroke-width="2" mask="url(#mask-2)" points="79.2857143 88.4801388 92.877551 88.4801388 92.877551 29.5821796 79.2857143 29.5821796"></polygon>
                    </g>
                    <circle id="Oval" stroke="#0A175E" stroke-width="2" fill="#FFFFFF" cx="26.5" cy="26.5" r="26.5"></circle>
                </g>
                <polygon id="Stroke-1" stroke="#0A175E" stroke-width="2" stroke-linejoin="round" points="38 20 33 15 26 22 19 15 14 20 21 27 14 34 19 39 26 32 33 39 38 34 31 27"></polygon>
            </g>
        </g>
    </g>
</svg>