<?xml version="1.0" encoding="UTF-8"?>
<svg width="64px" height="64px" viewBox="0 0 64 64" version="1.1" xmlns="http://www.w3.org/2000/svg" xmlns:xlink="http://www.w3.org/1999/xlink">
    <!-- Generator: Sketch 57.1 (83088) - https://sketch.com -->
    <title>Group 8</title>
    <desc>Created with Sketch.</desc>
    <g id="Page-1-Copy" stroke="none" stroke-width="1" fill="none" fill-rule="evenodd">
        <g id="Institution-1-Copy-7" transform="translate(-1255.000000, -182.000000)" stroke="#323D78" stroke-width="2">
            <g id="Group-8" transform="translate(1256.000000, 183.000000)">
                <polygon id="Stroke-1" stroke-linejoin="round" points="43 24 38 19 31 26 24 19 19 24 26 31 19 38 24 43 31 36 38 43 43 38 36 31"></polygon>
                <path d="M30,56 L32,56" id="Stroke-2"></path>
                <path d="M30,6 L32,6" id="Stroke-3"></path>
                <path d="M5,31 L7,31" id="Stroke-4"></path>
                <path d="M55,31 L57,31" id="Stroke-5"></path>
                <path d="M62,31 C62,48.121 48.121,62 31,62 C13.879,62 0,48.121 0,31 C0,13.879 13.879,0 31,0 C48.121,0 62,13.879 62,31 Z" id="Stroke-6"></path>
            </g>
        </g>
    </g>
</svg>