<?xml version="1.0" encoding="UTF-8"?>
<svg width="42px" height="42px" viewBox="0 0 42 42" version="1.1" xmlns="http://www.w3.org/2000/svg" xmlns:xlink="http://www.w3.org/1999/xlink">
    <!-- Generator: Sketch 57.1 (83088) - https://sketch.com -->
    <title>Group 2</title>
    <desc>Created with Sketch.</desc>
    <g id="Page-1-Copy" stroke="none" stroke-width="1" fill="none" fill-rule="evenodd">
        <g id="11-onboard-copy-2" transform="translate(-1247.000000, -162.000000)" stroke="#F99E31">
            <g id="Group-2" transform="translate(1248.000000, 163.000000)">
                <g id="Group-5" transform="translate(11.000000, 11.000000)">
                    <path d="M13.1504457,4.00321474 C13.2408309,1.75670833 11.5165901,0 9.50080921,0 C7.48541292,0 5.73617201,1.77162821 5.85155729,4.00321474 C5.87463435,4.45166346 6.25694426,6.67216667 6.25694426,6.67216667 C6.5723307,8.5998141 7.70926037,10.2307692 9.50080921,10.2307692 C11.2927427,10.2307692 12.4069799,8.62453846 12.7450588,6.67216667 C12.7450588,6.67216667 13.1323687,4.45208974 13.1504457,4.00321474 Z" id="Stroke-1"></path>
                    <path d="M19,19 L0,19 L0.456413043,15.2570913 C0.647652174,14.0339663 1.6501087,13.2662019 2.74756522,13.0127163 L9.5,11.6923077 L16.2495435,13.0049519 C17.3651739,13.2835577 18.3523478,14.0166106 18.543587,15.2506971 L19,19 Z" id="Stroke-3"></path>
                </g>
                <circle id="Oval" cx="20" cy="20" r="20"></circle>
            </g>
        </g>
    </g>
</svg>