<?xml version="1.0" encoding="UTF-8"?>
<svg width="273px" height="113px" viewBox="0 0 273 113" version="1.1" xmlns="http://www.w3.org/2000/svg" xmlns:xlink="http://www.w3.org/1999/xlink">
    <!-- Generator: Sketch 57.1 (83088) - https://sketch.com -->
    <title>Group 30</title>
    <desc>Created with Sketch.</desc>
    <g id="Page-1-Copy" stroke="none" stroke-width="1" fill="none" fill-rule="evenodd">
        <g id="Institution-1-Copy-6" transform="translate(-230.000000, -663.000000)" stroke-width="2">
            <g id="Group-30" transform="translate(231.000000, 664.000000)">
                <polyline id="Stroke-1" stroke="#0A175E" points="261.032967 4.87912088 270.791209 4.87912088 270.791209 111 4.87912088 111 4.87912088 106.120879"></polyline>
                <path d="M113.43956,26.2641857 L259.580209,26.2641857" id="Stroke-3" stroke="#0A175E"></path>
                <path d="M113.43956,33.8424363 L259.580209,33.8424363" id="Stroke-4" stroke="#0A175E"></path>
                <path d="M14.6373626,60.989011 L66.8549341,60.989011" id="Stroke-5" stroke="#0A175E"></path>
                <path d="M14.6373626,68.5672615 L66.8549341,68.5672615" id="Stroke-6" stroke="#0A175E"></path>
                <path d="M14.6373626,77.8063648 L66.8549341,77.8063648" id="Stroke-7" stroke="#0A175E"></path>
                <path d="M14.6373626,85.3846154 L66.8549341,85.3846154" id="Stroke-8" stroke="#0A175E"></path>
                <path d="M113.43956,41.4205648 L259.580209,41.4205648" id="Stroke-9" stroke="#0A175E"></path>
                <path d="M113.43956,48.9988154 L173.614978,48.9988154" id="Stroke-10" stroke="#0A175E"></path>
                <path d="M197.059398,96.3626374 L197.059398,67.9441978" id="Stroke-11" stroke="#0A175E"></path>
                <path d="M204.637648,96.3626374 L204.637648,77.417011" id="Stroke-12" stroke="#0A175E"></path>
                <path d="M212.215777,96.3626374 L212.215777,60.3657033" id="Stroke-13" stroke="#0A175E"></path>
                <path d="M87.8241758,96.3626374 L87.8241758,6.0989011" id="Stroke-14" stroke="#0A175E"></path>
                <path d="M219.794027,96.3626374 L219.794027,71.7340549" id="Stroke-15" stroke="#0A175E"></path>
                <path d="M227.372278,96.3626374 L227.372278,64.1555604" id="Stroke-16" stroke="#0A175E"></path>
                <path d="M234.950407,96.3626374 L234.950407,75.5226923" id="Stroke-17" stroke="#0A175E"></path>
                <path d="M242.528657,96.3626374 L242.528657,71.7340549" id="Stroke-18" stroke="#0A175E"></path>
                <path d="M250.106908,96.3626374 L250.106908,58.4713846" id="Stroke-19" stroke="#0A175E"></path>
                <path d="M257.685036,96.3626374 L257.685036,64.1555604" id="Stroke-20" stroke="#0A175E"></path>
                <g id="Group-25" stroke="#0C195F">
                    <polyline id="Stroke-21" points="256.153846 1.21978022 256.153846 9.75824176 264.692308 9.75824176"></polyline>
                    <polygon id="Stroke-23" points="256.153846 0 265.912088 9.75824176 265.912088 106.120879 0 106.120879 0 0"></polygon>
                </g>
                <polygon id="Stroke-26" stroke="#0A175E" stroke-linejoin="round" points="113.43956 18.6858132 216.597593 18.6858132 216.597593 7.31868132 113.43956 7.31868132"></polygon>
                <polygon id="Stroke-27" stroke="#0A175E" stroke-linejoin="round" points="113.43956 96.3626374 185.406593 96.3626374 185.406593 60.989011 113.43956 60.989011"></polygon>
                <path d="M51.2307692,25.6153846 C51.2307692,35.720044 43.0387253,43.9120879 32.9340659,43.9120879 C22.8294066,43.9120879 14.6373626,35.720044 14.6373626,25.6153846 C14.6373626,15.5107253 22.8294066,7.31868132 32.9340659,7.31868132 C43.0387253,7.31868132 51.2307692,15.5107253 51.2307692,25.6153846 Z" id="Stroke-28" stroke="#0A175E" stroke-linejoin="round"></path>
            </g>
        </g>
    </g>
</svg>