<?xml version="1.0" encoding="UTF-8"?>
<svg width="112px" height="112px" viewBox="0 0 112 112" version="1.1" xmlns="http://www.w3.org/2000/svg" xmlns:xlink="http://www.w3.org/1999/xlink">
    <!-- Generator: Sketch 57.1 (83088) - https://sketch.com -->
    <title>Group 21</title>
    <desc>Created with Sketch.</desc>
    <g id="Page-1-Copy" stroke="none" stroke-width="1" fill="none" fill-rule="evenodd">
        <g id="Institution-1-Copy-6" transform="translate(-971.000000, -322.000000)" stroke="#0A175E" stroke-width="2">
            <g id="Group-21" transform="translate(972.000000, 323.000000)">
                <polyline id="Stroke-1" stroke-linejoin="round" points="12.4193548 44.3548387 19.516129 51.4516129 26.6129032 44.3548387"></polyline>
                <g id="Group-20">
                    <path d="M65.6451613,17.7419355 L31.9354839,17.7419355 C25.0764516,17.7419355 19.516129,23.3022581 19.516129,30.1612903 L19.516129,51.4516129" id="Stroke-2" stroke-linejoin="round"></path>
                    <polyline id="Stroke-4" stroke-linejoin="round" points="97.5806452 62.0967742 90.483871 55 83.3870968 62.0967742"></polyline>
                    <path d="M44.3548387,88.7096774 L78.0645161,88.7096774 C84.9235484,88.7096774 90.483871,83.1493548 90.483871,76.2903226 L90.483871,55" id="Stroke-6" stroke-linejoin="round"></path>
                    <path d="M46.1290323,45.2419355 C46.1290323,51.4516129 49.6117742,56.7741935 55,56.7741935 C60.3882258,56.7741935 63.8709677,51.4516129 63.8709677,45.2419355 C63.8709677,39.0322581 62.0967742,35.483871 55,35.483871 C47.9032258,35.483871 46.1290323,39.0322581 46.1290323,45.2419355 Z" id="Stroke-8"></path>
                    <path d="M49.6774194,55 L37.2580645,62.0967742 L37.2580645,65.6451613 C37.2580645,68.585 39.0322581,70.9677419 40.8064516,70.9677419 L69.1935484,70.9677419 C70.9677419,70.9677419 72.7419355,68.585 72.7419355,65.6451613 L72.7419355,62.0967742 L60.3225806,55" id="Stroke-10"></path>
                    <path d="M8.87096774,84.2741935 C8.87096774,90.483871 12.3537097,95.8064516 17.7419355,95.8064516 C23.1301613,95.8064516 26.6129032,90.483871 26.6129032,84.2741935 C26.6129032,78.0645161 24.8387097,74.516129 17.7419355,74.516129 C10.6451613,74.516129 8.87096774,78.0645161 8.87096774,84.2741935 Z" id="Stroke-12"></path>
                    <path d="M12.4193548,94.0322581 L0,101.129032 L0,104.677419 C0,107.617258 1.77419355,110 3.5483871,110 L31.9354839,110 C33.7096774,110 35.483871,107.617258 35.483871,104.677419 L35.483871,101.129032 L23.0645161,94.0322581" id="Stroke-14"></path>
                    <path d="M83.3870968,9.75806452 C83.3870968,15.9677419 86.8698387,21.2903226 92.2580645,21.2903226 C97.6462903,21.2903226 101.129032,15.9677419 101.129032,9.75806452 C101.129032,3.5483871 99.3548387,0 92.2580645,0 C85.1612903,0 83.3870968,3.5483871 83.3870968,9.75806452 Z" id="Stroke-16"></path>
                    <path d="M86.9354839,19.516129 L74.516129,26.6129032 L74.516129,30.1612903 C74.516129,33.101129 76.2903226,35.483871 78.0645161,35.483871 L106.451613,35.483871 C108.225806,35.483871 110,33.101129 110,30.1612903 L110,26.6129032 L97.5806452,19.516129" id="Stroke-18"></path>
                </g>
            </g>
        </g>
    </g>
</svg>