<?xml version="1.0" encoding="UTF-8"?>
<svg width="113px" height="113px" viewBox="0 0 113 113" version="1.1" xmlns="http://www.w3.org/2000/svg" xmlns:xlink="http://www.w3.org/1999/xlink">
    <!-- Generator: Sketch 57.1 (83088) - https://sketch.com -->
    <title>Group 8</title>
    <desc>Created with Sketch.</desc>
    <g id="Page-1-Copy" stroke="none" stroke-width="1" fill="none" fill-rule="evenodd">
        <g id="Institution-1-Copy-6" transform="translate(-300.000000, -322.000000)" stroke="#0A175E" stroke-width="2">
            <g id="Group-8" transform="translate(301.000000, 323.000000)">
                <polygon id="Stroke-1" stroke-linecap="round" stroke-linejoin="round" points="84.1451613 42.9677419 75.1935484 34.016129 50.1290323 59.0806452 35.8064516 44.7580645 26.8548387 53.7096774 50.1290323 76.983871"></polygon>
                <path d="M53.7096774,100.258065 L57.2903226,100.258065" id="Stroke-2"></path>
                <path d="M53.7096774,10.7419355 L57.2903226,10.7419355" id="Stroke-3"></path>
                <path d="M8.9516129,55.5 L12.5322581,55.5" id="Stroke-4"></path>
                <path d="M98.4677419,55.5 L102.048387,55.5" id="Stroke-5"></path>
                <path d="M111,55.5 C111,86.1521129 86.1521129,111 55.5,111 C24.8478871,111 0,86.1521129 0,55.5 C0,24.8478871 24.8478871,0 55.5,0 C86.1521129,0 111,24.8478871 111,55.5 Z" id="Stroke-6"></path>
            </g>
        </g>
    </g>
</svg>