<?xml version="1.0" encoding="UTF-8"?>
<svg width="45px" height="45px" viewBox="0 0 45 45" version="1.1" xmlns="http://www.w3.org/2000/svg" xmlns:xlink="http://www.w3.org/1999/xlink">
    <!-- Generator: Sketch 52.6 (67491) - http://www.bohemiancoding.com/sketch -->
    <title>Group 3</title>
    <desc>Created with Sketch.</desc>
    <defs>
        <path d="M16.1310938,1.40414063 C10.4252344,3.0346875 5.69390625,6.7921875 2.80828125,11.9784375 C-0.073828125,17.1667969 -0.765703125,23.1686719 0.864140625,28.8752344 C4.2271875,40.6567969 16.54875,47.5080469 28.3338281,44.1435938 C40.1132813,40.7805469 46.9645313,28.4575781 43.6021875,16.6767188 C42.7197656,13.5907031 41.2122656,10.7901563 39.1992188,8.41078125 C38.8125,7.76109375 36.7235156,5.7684375 36.1420313,5.445 C35.1717188,4.67085938 34.1374219,3.9684375 33.0314063,3.35390625 C29.6817188,1.490625 25.9917188,0.542109375 22.2609375,0.542109375 C20.2134375,0.542109375 18.1539844,0.827578125 16.1310938,1.40414063 Z M16.8714844,3.99375 C20.9721094,2.82445312 25.2428906,3.01710937 29.1564844,4.51265625 L14.1989063,4.97179688 C15.0574219,4.58507813 15.9482813,4.258125 16.8714844,3.99375 Z M31.7453906,8.29617188 C31.4985937,7.87992188 31.213125,7.49601563 30.8988281,7.15078125 L32.0428125,7.11492188 C32.9477344,7.08679688 33.8280469,7.28296875 34.6183594,7.67390625 C35.4705469,8.36929688 36.2594531,9.12867188 36.973125,9.95132812 C37.3760156,10.6839844 37.6052344,11.5080469 37.6298437,12.3686719 L37.8239063,18.635625 L31.7453906,8.29617188 Z M7.51921875,13.2953906 C7.42710937,10.3071094 9.7846875,7.79835938 12.7736719,7.70835938 L19.501875,7.50023438 L8.69976562,13.8494531 C8.28703125,14.0948438 7.90945312,14.3746875 7.56070312,14.6882813 L7.51921875,13.2953906 Z M23.6749219,8.16679688 C25.6717969,6.99609375 28.2515625,7.66546875 29.4264844,9.66023438 C29.4264844,9.66023438 29.7963281,10.2958594 30.3792187,11.2858594 C30.2955469,11.2267969 30.2167969,11.1642188 30.1275,11.1100781 C28.9244531,10.3598438 27.4971094,10.1242969 26.1182812,10.4442188 L15.6825,12.8692969 L23.6749219,8.16679688 Z M17.2814063,31.8410156 C16.6528125,31.449375 16.2126563,30.8348438 16.0439063,30.1092188 L13.4353125,18.8641406 C13.2623438,18.1413281 13.3867969,17.3939063 13.7791406,16.7646094 C14.169375,16.1395313 14.7775781,15.7028906 15.4947656,15.53625 L26.69625,12.9353906 C27.4127344,12.76875 28.1517188,12.8946094 28.7753906,13.2813281 C29.4046875,13.6729688 29.8455469,14.2903125 30.0135938,15.0145313 L32.6264063,26.2603125 C32.9702344,27.7474219 32.0442188,29.2394531 30.5627344,29.5839844 L19.36125,32.1869531 C19.1524219,32.2354688 18.9414844,32.259375 18.7319531,32.259375 C18.2235938,32.259375 17.724375,32.1173438 17.2814063,31.8410156 Z M3.45304688,28.13625 C2.08335938,23.3388281 2.58257813,18.3086719 4.84382813,13.89375 L5.4196875,32.6503125 C5.4196875,32.6763281 5.4253125,32.6988281 5.42742188,32.72625 C4.59210938,31.3171875 3.92273438,29.7808594 3.45304688,28.13625 Z M8.5725,21.9213281 C8.0015625,20.953125 7.8440625,19.8217969 8.12390625,18.7361719 C8.40867187,17.6498438 9.09492187,16.7392969 10.0652344,16.1725781 L11.7864844,15.1607813 C11.7267187,15.2451563 11.6655469,15.3239063 11.6085938,15.4125 C10.8555469,16.6211719 10.6207031,18.0548438 10.9427344,19.4414063 L13.4430469,30.2076563 L8.5725,21.9213281 Z M35.1154687,25.6788281 L32.6826563,15.2001563 C34.8967969,18.9675 37.4273437,23.2734375 37.4273437,23.2734375 C37.6502344,23.6538281 37.8077344,24.0525 37.9026562,24.4617188 C38.2978125,26.2005469 37.5517969,28.0736719 35.9360156,29.0235938 L34.2253125,30.0297656 C35.105625,28.8189844 35.4803906,27.2496094 35.1154687,25.6788281 Z M40.4247656,15.6663281 C40.64625,16.2372656 40.8410156,16.8208594 41.0139844,17.415 C42.1129688,21.2653125 41.9702344,25.1796094 40.8234375,28.7332031 L40.4247656,15.6663281 Z M9.81632812,36.3480469 C8.75882812,35.3573438 8.15625,34.0115625 8.11125,32.5659375 L7.91226562,26.1077344 L14.25375,36.8971875 C14.4400781,37.2135938 14.653125,37.5060938 14.8816406,37.783125 L13.6982812,37.8210938 C13.6434375,37.8225 13.5878906,37.8232031 13.5323437,37.8232031 C12.1429687,37.8232031 10.8323437,37.3035938 9.81632812,36.3480469 Z M37.299375,31.3425 C37.6221094,31.1533594 37.9153125,30.9360938 38.19375,30.7054688 L38.2225781,31.6399219 C38.3139844,34.6282031 35.9571094,37.1348438 32.9674219,37.2276563 L26.9760937,37.4104688 L37.299375,31.3425 Z M19.9399219,34.678125 L30.4790625,32.2284375 L22.32,37.0251563 C20.3259375,38.1986719 17.7461719,37.5285938 16.5740625,35.5338281 L15.5053125,33.7176563 C15.6396094,33.8217188 15.7795312,33.9180469 15.9307031,34.0115625 C16.7828906,34.5438281 17.7482813,34.8166406 18.7305469,34.8166406 C19.1334375,34.8166406 19.5384375,34.7709375 19.9399219,34.678125 Z M14.0625,40.4971875 L31.5,39.9635156 C30.2821875,40.6195313 28.9771875,41.1623438 27.5927344,41.5553906 C25.8124219,42.06375 24.0180469,42.3063281 22.2517969,42.3063281 C19.3865625,42.3063281 16.5958594,41.6685938 14.0625,40.4971875 Z" id="path-1"></path>
        <linearGradient x1="24.1556151%" y1="70.0645415%" x2="93.0058695%" y2="16.6099243%" id="linearGradient-3">
            <stop stop-color="#BE202E" offset="0%"></stop>
            <stop stop-color="#F79521" offset="100%"></stop>
        </linearGradient>
    </defs>
    <g id="Page-1" stroke="none" stroke-width="1" fill="none" fill-rule="evenodd">
        <g id="Desktop-HD" transform="translate(-698.000000, -29.000000)">
            <g id="Group-3" transform="translate(698.000000, 29.000000)">
                <mask id="mask-2" fill="white">
                    <use xlink:href="#path-1"></use>
                </mask>
                <g id="Clip-2"></g>
                <path d="M16.1310938,1.40414063 C10.4252344,3.0346875 5.69390625,6.7921875 2.80828125,11.9784375 C-0.073828125,17.1667969 -0.765703125,23.1686719 0.864140625,28.8752344 C4.2271875,40.6567969 16.54875,47.5080469 28.3338281,44.1435938 C40.1132813,40.7805469 46.9645313,28.4575781 43.6021875,16.6767188 C42.7197656,13.5907031 41.2122656,10.7901563 39.1992188,8.41078125 C38.8125,7.76109375 36.7235156,5.7684375 36.1420313,5.445 C35.1717188,4.67085938 34.1374219,3.9684375 33.0314063,3.35390625 C29.6817188,1.490625 25.9917188,0.542109375 22.2609375,0.542109375 C20.2134375,0.542109375 18.1539844,0.827578125 16.1310938,1.40414063 Z M16.8714844,3.99375 C20.9721094,2.82445312 25.2428906,3.01710937 29.1564844,4.51265625 L14.1989063,4.97179688 C15.0574219,4.58507813 15.9482813,4.258125 16.8714844,3.99375 Z M31.7453906,8.29617188 C31.4985937,7.87992188 31.213125,7.49601563 30.8988281,7.15078125 L32.0428125,7.11492188 C32.9477344,7.08679688 33.8280469,7.28296875 34.6183594,7.67390625 C35.4705469,8.36929688 36.2594531,9.12867188 36.973125,9.95132812 C37.3760156,10.6839844 37.6052344,11.5080469 37.6298437,12.3686719 L37.8239063,18.635625 L31.7453906,8.29617188 Z M7.51921875,13.2953906 C7.42710937,10.3071094 9.7846875,7.79835938 12.7736719,7.70835938 L19.501875,7.50023438 L8.69976562,13.8494531 C8.28703125,14.0948438 7.90945312,14.3746875 7.56070312,14.6882813 L7.51921875,13.2953906 Z M23.6749219,8.16679688 C25.6717969,6.99609375 28.2515625,7.66546875 29.4264844,9.66023438 C29.4264844,9.66023438 29.7963281,10.2958594 30.3792187,11.2858594 C30.2955469,11.2267969 30.2167969,11.1642188 30.1275,11.1100781 C28.9244531,10.3598438 27.4971094,10.1242969 26.1182812,10.4442188 L15.6825,12.8692969 L23.6749219,8.16679688 Z M17.2814063,31.8410156 C16.6528125,31.449375 16.2126563,30.8348438 16.0439063,30.1092188 L13.4353125,18.8641406 C13.2623438,18.1413281 13.3867969,17.3939063 13.7791406,16.7646094 C14.169375,16.1395313 14.7775781,15.7028906 15.4947656,15.53625 L26.69625,12.9353906 C27.4127344,12.76875 28.1517188,12.8946094 28.7753906,13.2813281 C29.4046875,13.6729688 29.8455469,14.2903125 30.0135938,15.0145313 L32.6264063,26.2603125 C32.9702344,27.7474219 32.0442188,29.2394531 30.5627344,29.5839844 L19.36125,32.1869531 C19.1524219,32.2354688 18.9414844,32.259375 18.7319531,32.259375 C18.2235938,32.259375 17.724375,32.1173438 17.2814063,31.8410156 Z M3.45304688,28.13625 C2.08335938,23.3388281 2.58257813,18.3086719 4.84382813,13.89375 L5.4196875,32.6503125 C5.4196875,32.6763281 5.4253125,32.6988281 5.42742188,32.72625 C4.59210938,31.3171875 3.92273438,29.7808594 3.45304688,28.13625 Z M8.5725,21.9213281 C8.0015625,20.953125 7.8440625,19.8217969 8.12390625,18.7361719 C8.40867187,17.6498438 9.09492187,16.7392969 10.0652344,16.1725781 L11.7864844,15.1607813 C11.7267187,15.2451563 11.6655469,15.3239063 11.6085938,15.4125 C10.8555469,16.6211719 10.6207031,18.0548438 10.9427344,19.4414063 L13.4430469,30.2076563 L8.5725,21.9213281 Z M35.1154687,25.6788281 L32.6826563,15.2001563 C34.8967969,18.9675 37.4273437,23.2734375 37.4273437,23.2734375 C37.6502344,23.6538281 37.8077344,24.0525 37.9026562,24.4617188 C38.2978125,26.2005469 37.5517969,28.0736719 35.9360156,29.0235938 L34.2253125,30.0297656 C35.105625,28.8189844 35.4803906,27.2496094 35.1154687,25.6788281 Z M40.4247656,15.6663281 C40.64625,16.2372656 40.8410156,16.8208594 41.0139844,17.415 C42.1129688,21.2653125 41.9702344,25.1796094 40.8234375,28.7332031 L40.4247656,15.6663281 Z M9.81632812,36.3480469 C8.75882812,35.3573438 8.15625,34.0115625 8.11125,32.5659375 L7.91226562,26.1077344 L14.25375,36.8971875 C14.4400781,37.2135938 14.653125,37.5060938 14.8816406,37.783125 L13.6982812,37.8210938 C13.6434375,37.8225 13.5878906,37.8232031 13.5323437,37.8232031 C12.1429687,37.8232031 10.8323437,37.3035938 9.81632812,36.3480469 Z M37.299375,31.3425 C37.6221094,31.1533594 37.9153125,30.9360938 38.19375,30.7054688 L38.2225781,31.6399219 C38.3139844,34.6282031 35.9571094,37.1348438 32.9674219,37.2276563 L26.9760937,37.4104688 L37.299375,31.3425 Z M19.9399219,34.678125 L30.4790625,32.2284375 L22.32,37.0251563 C20.3259375,38.1986719 17.7461719,37.5285938 16.5740625,35.5338281 L15.5053125,33.7176563 C15.6396094,33.8217188 15.7795312,33.9180469 15.9307031,34.0115625 C16.7828906,34.5438281 17.7482813,34.8166406 18.7305469,34.8166406 C19.1334375,34.8166406 19.5384375,34.7709375 19.9399219,34.678125 Z M14.0625,40.4971875 L31.5,39.9635156 C30.2821875,40.6195313 28.9771875,41.1623438 27.5927344,41.5553906 C25.8124219,42.06375 24.0180469,42.3063281 22.2517969,42.3063281 C19.3865625,42.3063281 16.5958594,41.6685938 14.0625,40.4971875 Z" id="Fill-1" fill="url(#linearGradient-3)" mask="url(#mask-2)"></path>
            </g>
        </g>
    </g>
</svg>