<?xml version="1.0" encoding="UTF-8"?>
<svg width="39px" height="27px" viewBox="0 0 39 27" version="1.1" xmlns="http://www.w3.org/2000/svg" xmlns:xlink="http://www.w3.org/1999/xlink">
    <!-- Generator: Sketch 55 (78076) - https://sketchapp.com -->
    <title>Group 9</title>
    <desc>Created with Sketch.</desc>
    <g id="Page-1-Copy" stroke="none" stroke-width="1" fill="none" fill-rule="evenodd">
        <g id="17.2-industry-content-copy-3" transform="translate(-423.000000, -930.000000)" stroke="#C1C1C1" stroke-width="2">
            <g id="Group-9" transform="translate(425.000000, 931.000000)">
                <path d="M17.1419079,4.89131579 C17.2642763,2.14657895 14.9353289,-0.000131578947 12.2136184,-0.000131578947 C9.49190789,-0.000131578947 7.12940789,2.165 7.28532895,4.89131579 C7.31690789,5.43934211 7.83269737,8.1525 7.83269737,8.1525 C8.25901316,10.5071053 9.79453947,12.4998684 12.2136184,12.4998684 C14.6326974,12.4998684 16.1379605,10.5373684 16.5945395,8.1525 C16.5945395,8.1525 17.1175658,5.44 17.1419079,4.89131579 Z" id="Stroke-1"></path>
                <path d="M24.3648026,25 L0.0595394737,25 L0.471381579,20.2796053 C0.696381579,18.4828947 2.49046053,17.2493421 4.34506579,16.8888158 L12.2121711,15.85 L20.1641447,16.9138158 C22.2233553,17.2796053 23.9595395,18.4197368 24.0930921,20.4960526 L24.3648026,25 Z" id="Stroke-3"></path>
                <path d="M29.9717763,8.13789474 C30.0698026,5.97078947 28.2066447,4.27605263 26.0290132,4.27605263 C23.8520395,4.27605263 21.9619079,5.98526316 22.08625,8.13789474 C22.1119079,8.57078947 22.5244079,10.7122368 22.5244079,10.7122368 C22.8651974,12.5714474 24.0934868,14.1444737 26.0290132,14.1444737 C27.9645395,14.1444737 29.1684868,12.5951316 29.5336184,10.7122368 C29.5336184,10.7122368 29.9520395,8.57078947 29.9717763,8.13789474 Z" id="Stroke-5"></path>
                <path d="M26.0280921,17.1052632 L32.5254605,17.8868421 C34.1030921,18.1697368 35.5451974,19.0868421 35.6728289,20.7618421 L35.8965132,25 L28.3307237,25" id="Stroke-7"></path>
            </g>
        </g>
    </g>
</svg>