<?xml version="1.0" encoding="utf-8"?>
<!-- Generator: Adobe Illustrator 17.0.0, SVG Export Plug-In . SVG Version: 6.00 Build 0)  -->
<!DOCTYPE svg PUBLIC "-//W3C//DTD SVG 1.1//EN" "http://www.w3.org/Graphics/SVG/1.1/DTD/svg11.dtd">
<svg version="1.1" id="Layer_1" xmlns="http://www.w3.org/2000/svg" xmlns:xlink="http://www.w3.org/1999/xlink" x="0px" y="0px"
	 width="1280px" height="800px" viewBox="0 0 1280 800" enable-background="new 0 0 1280 800" xml:space="preserve">
<g>
	<path fill="#E2574C" d="M339.999,0h424.824l225.175,224.301V750c0,27.624-22.399,50-50,50H339.999c-27.601,0-50-22.375-50-50V50
		C290,22.375,312.401,0,339.999,0z"/>
	<path fill="#B53629" d="M989.276,224.999H815.001c-27.601,0-50-22.399-50-50V0.499L989.276,224.999z"/>
	<g>
		<path fill="#FFFFFF" d="M424.897,503.898V347.502h54.567c19.12,0,34.873,6.106,47.262,18.314
			c12.388,12.21,18.583,27.874,18.583,46.994v25.887c0,19.192-6.195,34.856-18.583,46.994
			c-12.39,12.138-28.143,18.207-47.262,18.207H424.897z M456.262,371.671v108.167h23.202c10.312,0,18.618-3.849,24.92-11.548
			c6.301-7.696,9.453-17.562,9.453-29.593v-26.102c0-11.958-3.152-21.768-9.453-29.432c-6.302-7.662-14.608-11.493-24.92-11.493
			H456.262z"/>
		<path fill="#FFFFFF" d="M696.979,439.771c0,19.265-6.053,35.144-18.152,47.639c-12.104,12.497-27.857,18.744-47.263,18.744
			c-19.335,0-35.018-6.266-47.048-18.798c-12.03-12.53-18.045-28.393-18.045-47.585v-28.143c0-19.12,5.997-34.963,17.992-47.531
			c11.994-12.567,27.623-18.851,46.887-18.851c19.406,0,35.195,6.284,47.371,18.851c12.172,12.567,18.26,28.411,18.26,47.531
			V439.771z M665.721,411.414c0-12.173-3.045-22.163-9.131-29.968c-6.086-7.805-14.5-11.708-25.242-11.708
			c-10.599,0-18.852,3.904-24.759,11.708c-5.908,7.806-8.862,17.795-8.862,29.968v28.357c0,12.39,2.971,22.487,8.916,30.291
			c5.943,7.807,14.25,11.709,24.92,11.709c10.742,0,19.121-3.902,25.134-11.709c6.016-7.804,9.023-17.901,9.023-30.291V411.414z"/>
		<path fill="#FFFFFF" d="M839.088,452.125l0.215,0.644c0.285,16.687-4.799,29.754-15.253,39.207
			c-10.456,9.452-24.885,14.179-43.288,14.179c-18.763,0-33.908-6.032-45.437-18.1c-11.53-12.065-17.294-27.659-17.294-46.779
			v-31.043c0-19.047,5.621-34.641,16.864-46.779c11.242-12.138,25.994-18.207,44.255-18.207c19.048,0,33.943,4.656,44.685,13.964
			c10.741,9.31,15.968,22.414,15.683,39.313l-0.215,0.645h-30.506c0-10.025-2.417-17.49-7.25-22.396
			c-4.834-4.904-12.3-7.358-22.396-7.358c-9.382,0-16.703,3.778-21.966,11.333c-5.264,7.556-7.896,17.312-7.896,29.27v31.258
			c0,12.03,2.774,21.843,8.325,29.432c5.548,7.592,13.266,11.386,23.147,11.386c9.38,0,16.381-2.451,21-7.357
			c4.618-4.904,6.928-12.441,6.928-22.61H839.088z"/>
	</g>
</g>
</svg>
