<?xml version="1.0" encoding="UTF-8"?>
<svg width="17px" height="17px" viewBox="0 0 17 17" version="1.1" xmlns="http://www.w3.org/2000/svg" xmlns:xlink="http://www.w3.org/1999/xlink">
    <!-- Generator: Sketch 55.2 (78181) - https://sketchapp.com -->
    <title>Facebook Copy</title>
    <desc>Created with Sketch.</desc>
    <g id="Page-1-Copy" stroke="none" stroke-width="1" fill="none" fill-rule="evenodd">
        <g id="17.2-industry-content-copy-5" transform="translate(-1318.000000, -124.000000)" fill="#FAA641">
            <path d="M1335,140.06137 C1335,140.579538 1334.57999,141 1334.06181,141 L1329.72973,141 L1329.72973,134.416621 L1331.93953,134.416621 L1332.27063,131.851248 L1329.72973,131.851248 L1329.72973,130.212928 C1329.72973,129.470173 1329.93626,128.964044 1331.00133,128.964044 L1332.36,128.963581 L1332.36,126.668637 C1332.12476,126.637612 1331.31854,126.567689 1330.38035,126.567689 C1328.42154,126.567689 1327.08047,127.76332 1327.08047,129.959169 L1327.08047,131.851248 L1324.86511,131.851248 L1324.86511,134.416621 L1327.08047,134.416621 L1327.08047,141 L1318.93819,141 C1318.42001,141 1318,140.579538 1318,140.06137 L1318,124.93863 C1318,124.419999 1318.42001,124 1318.93819,124 L1334.06181,124 C1334.57999,124 1335,124.419999 1335,124.93863 L1335,140.06137" id="Facebook-Copy"></path>
        </g>
    </g>
</svg>