<?xml version="1.0" encoding="UTF-8"?>
<svg width="25px" height="27px" viewBox="0 0 25 27" version="1.1" xmlns="http://www.w3.org/2000/svg" xmlns:xlink="http://www.w3.org/1999/xlink">
    <!-- Generator: Sketch 55.2 (78181) - https://sketchapp.com -->
    <title>Group 12</title>
    <desc>Created with Sketch.</desc>
    <defs>
        <polygon id="path-1" points="0 25.92408 24.44208 25.92408 24.44208 0 0 0"></polygon>
    </defs>
    <g id="Page-1-Copy" stroke="none" stroke-width="1" fill="none" fill-rule="evenodd">
        <g id="17.2-industry-content-copy-5" transform="translate(-561.000000, -931.000000)">
            <g id="Group-12" transform="translate(561.000000, 931.000000)">
                <path d="M22.69046,3.56408 L22.69046,22.28408 C22.69046,24.00736 21.03634,25.40408 18.99534,25.40408 L5.44674,25.40408 C3.40626,25.40408 1.75162,24.00736 1.75162,22.28408 L1.75162,3.56408" id="Stroke-1" stroke="#C1C1C1" stroke-width="2" stroke-linecap="round"></path>
                <mask id="mask-2" fill="white">
                    <use xlink:href="#path-1"></use>
                </mask>
                <g id="Clip-4"></g>
                <polygon id="Stroke-3" stroke="#C1C1C1" stroke-width="2" stroke-linecap="round" mask="url(#mask-2)" points="10.98968 10.84408 13.45292 10.84408 13.45292 6.68408 10.98968 6.68408"></polygon>
                <polygon id="Stroke-5" stroke="#C1C1C1" stroke-width="2" stroke-linecap="round" mask="url(#mask-2)" points="10.98968 18.12408 13.45292 18.12408 13.45292 13.96408 10.98968 13.96408"></polygon>
                <polygon id="Stroke-6" stroke="#C1C1C1" stroke-width="2" stroke-linecap="round" mask="url(#mask-2)" points="5.447 10.84408 7.91024 10.84408 7.91024 6.68408 5.447 6.68408"></polygon>
                <polygon id="Stroke-7" stroke="#C1C1C1" stroke-width="2" stroke-linecap="round" mask="url(#mask-2)" points="16.53236 10.84408 18.9956 10.84408 18.9956 6.68408 16.53236 6.68408"></polygon>
                <polygon id="Stroke-8" stroke="#C1C1C1" stroke-width="2" stroke-linecap="round" mask="url(#mask-2)" points="5.447 18.12408 7.91024 18.12408 7.91024 13.96408 5.447 13.96408"></polygon>
                <polygon id="Stroke-9" stroke="#C1C1C1" stroke-width="2" stroke-linecap="round" mask="url(#mask-2)" points="16.53236 18.12408 18.9956 18.12408 18.9956 13.96408 16.53236 13.96408"></polygon>
                <polyline id="Stroke-10" stroke="#C1C1C1" stroke-width="2" stroke-linecap="round" mask="url(#mask-2)" points="9.757696 25.40408 9.757696 21.24408 14.684696 21.24408 14.684696 25.40408"></polyline>
                <polygon id="Stroke-11" stroke="#C1C1C1" stroke-width="2" stroke-linecap="round" mask="url(#mask-2)" points="0.52 3.56408 23.92208 3.56408 23.92208 0.52 0.52 0.52"></polygon>
            </g>
        </g>
    </g>
</svg>