<?xml version="1.0" encoding="UTF-8"?>
<svg width="25px" height="26px" viewBox="0 0 25 26" version="1.1" xmlns="http://www.w3.org/2000/svg" xmlns:xlink="http://www.w3.org/1999/xlink">
    <!-- Generator: Sketch 49.2 (51160) - http://www.bohemiancoding.com/sketch -->
    <title>Group</title>
    <desc>Created with Sketch.</desc>
    <defs></defs>
    <g id="Admin" stroke="none" stroke-width="1" fill="none" fill-rule="evenodd" stroke-linecap="round" stroke-linejoin="round">
        <g id="UI-set-Copy" transform="translate(-301.000000, -1522.000000)" stroke="#11A0D8" stroke-width="2">
            <g id="Group" transform="translate(302.000000, 1523.000000)">
                <g id="Page-1">
                    <path d="M10.7349888,24 C10.4103786,23.8932844 10.0693953,23.837479 9.76413528,23.6961297 C8.82503575,23.2609454 8.25197541,22.5237265 8.01456469,21.5292642 C8.00737043,21.4994034 8.0037733,21.4601193 8.00104444,21.4295242 C7.99893578,21.4052929 8.00067232,21.4399266 8.00067232,21.3333333 L14.2222222,21.3333333 C14.1948096,21.759951 14.059607,22.0605171 13.8761533,22.3801744 C13.3607711,23.2780786 12.5773406,23.7994187 11.5485608,23.9679364 C11.5258617,23.9716078 11.5055193,24 11.4840605,24 L10.7349888,24 Z" id="Stroke-1"></path>
                    <path d="M11.6134096,0 C11.9070602,0.116628214 12.2021994,0.106329622 12.4942262,0.167586184 C13.6778954,0.415287391 14.6917344,0.983983683 15.5476516,1.81816966 C16.1985547,2.45280369 16.6878822,3.19965226 17.0076502,4.05269669 C17.2902044,4.8066339 17.4159193,5.58424449 17.41619,6.38512723 C17.4170019,8.34827967 17.5967107,10.2955161 17.9842754,12.2213529 C18.2329989,13.4567827 18.5760424,14.6668004 19.0791728,15.8270639 C19.4779694,16.7464473 19.9629666,17.6176815 20.6742236,18.3412579 C21.070449,18.7443742 21.5270284,19.0707192 22.0844234,19.2367004 C22.1392291,19.2530177 22.2152806,19.3110643 22.2159572,19.3589461 C22.2246179,20.0172535 22.2217761,20.6339653 22.2217761,21.3333333 L0,21.3333333 L0,20.9486742 C0,20.4439095 0.0128556736,19.9391447 0.0115024448,19.4345137 C0.011231799,19.3431638 0.0170506829,19.2694687 0.134646265,19.2356305 C0.914241377,19.0106664 1.48625119,18.497743 1.96854193,17.8833049 C2.95477508,16.6267429 3.4943074,15.1640753 3.91746205,13.6535259 C4.23925986,12.504631 4.45131081,11.333534 4.59570032,10.1501321 C4.75064502,8.87979403 4.83102681,7.60517605 4.83102681,6.32534189 C4.83116214,5.0414953 5.16825143,3.85207477 5.89750643,2.78489986 C6.6573444,1.67305313 7.6627934,0.844217073 8.95390899,0.409268733 C9.49682439,0.226435283 10.0722173,0.116628214 10.6327246,0 L11.6134096,0 Z" id="Stroke-3"></path>
                </g>
            </g>
        </g>
    </g>
</svg>