<?xml version="1.0" encoding="UTF-8"?>
<svg width="18px" height="27px" viewBox="0 0 18 27" version="1.1" xmlns="http://www.w3.org/2000/svg" xmlns:xlink="http://www.w3.org/1999/xlink">
    <!-- Generator: Sketch 55 (78076) - https://sketchapp.com -->
    <title>Group 5</title>
    <desc>Created with Sketch.</desc>
    <g id="Page-1-Copy" stroke="none" stroke-width="1" fill="none" fill-rule="evenodd">
        <g id="17.2-industry-content-copy-3" transform="translate(-649.000000, -930.000000)" stroke="#C1C1C1" stroke-width="2">
            <g id="Group-5" transform="translate(651.000000, 931.000000)">
                <path d="M9.51875,2.17391304 C9.51875,3.37445652 8.5513587,4.34782609 7.35842391,4.34782609 C6.16494565,4.34782609 5.19809783,3.37445652 5.19809783,2.17391304 C5.19809783,0.973369565 6.16494565,0 7.35842391,0 C8.5513587,0 9.51875,0.973369565 9.51875,2.17391304 Z" id="Stroke-1"></path>
                <path d="M8.33972826,25 L6.50603261,25 L5.00820652,18.1820652 L0.256032609,17.3293478 L3.66527174,10.2380435 C4.56472826,8.34782609 5.31853261,6.52173913 7.35820652,6.52173913 L7.35820652,6.52173913 C9.39788043,6.52173913 10.1516848,8.15869565 11.0516848,10.2380435 L14.4603804,17.0456522 L9.34679348,18.1820652 L8.33972826,25 Z" id="Stroke-3"></path>
            </g>
        </g>
    </g>
</svg>