<?xml version="1.0" encoding="UTF-8"?>
<svg width="11px" height="27px" viewBox="0 0 11 27" version="1.1" xmlns="http://www.w3.org/2000/svg" xmlns:xlink="http://www.w3.org/1999/xlink">
    <!-- Generator: Sketch 55 (78076) - https://sketchapp.com -->
    <title>Group 5</title>
    <desc>Created with Sketch.</desc>
    <g id="Page-1-Copy" stroke="none" stroke-width="1" fill="none" fill-rule="evenodd">
        <g id="17.2-industry-content-copy-3" transform="translate(-515.000000, -930.000000)" stroke="#C1C1C1" stroke-width="2">
            <g id="Group-5" transform="translate(516.000000, 931.000000)">
                <path d="M6.75,2.17391304 C6.75,3.37445652 5.7425625,4.34782609 4.5,4.34782609 C3.2574375,4.34782609 2.25,3.37445652 2.25,2.17391304 C2.25,0.973369565 3.2574375,0 4.5,0 C5.7425625,0 6.75,0.973369565 6.75,2.17391304 Z" id="Stroke-1"></path>
                <path d="M5.67613125,25 L3.32375625,25 L2.40913125,16.7217391 L-5.625e-05,15.1625 L-5.625e-05,10.8548913 C-5.625e-05,8.48695652 2.05194375,6.52173913 4.48813125,6.52173913 L4.49375625,6.52173913 C6.92994375,6.52173913 8.99994375,8.48695652 8.99994375,10.8548913 L8.99994375,14.7728261 L6.61494375,16.7217391 L5.67613125,25 Z" id="Stroke-3"></path>
            </g>
        </g>
    </g>
</svg>