<?xml version="1.0" encoding="UTF-8"?>
<svg width="11px" height="12px" viewBox="0 0 11 12" version="1.1" xmlns="http://www.w3.org/2000/svg" xmlns:xlink="http://www.w3.org/1999/xlink">
    <!-- Generator: Sketch 55 (78076) - https://sketchapp.com -->
    <title>%</title>
    <desc>Created with Sketch.</desc>
    <g id="Page-1-Copy" stroke="none" stroke-width="1" fill="none" fill-rule="evenodd">
        <g id="7-onboard" transform="translate(-934.000000, -403.000000)" fill="#F9A540" fill-rule="nonzero">
            <path d="M938.861,406.328 C938.861,406.710669 938.796834,407.055998 938.6685,407.364 C938.540166,407.672002 938.368668,407.934499 938.154,408.1515 C937.939332,408.368501 937.689668,408.535333 937.405,408.652 C937.120332,408.768667 936.824002,408.827 936.516,408.827 C936.179998,408.827 935.869668,408.768667 935.585,408.652 C935.300332,408.535333 935.054168,408.368501 934.8465,408.1515 C934.638832,407.934499 934.476667,407.672002 934.36,407.364 C934.243333,407.055998 934.185,406.710669 934.185,406.328 C934.185,405.935998 934.243333,405.581335 934.36,405.264 C934.476667,404.946665 934.638832,404.678334 934.8465,404.459 C935.054168,404.239666 935.300332,404.070501 935.585,403.9515 C935.869668,403.832499 936.179998,403.773 936.516,403.773 C936.852002,403.773 937.163499,403.832499 937.4505,403.9515 C937.737501,404.070501 937.985999,404.239666 938.196,404.459 C938.406001,404.678334 938.569333,404.946665 938.686,405.264 C938.802667,405.581335 938.861,405.935998 938.861,406.328 Z M937.524,406.328 C937.524,406.057332 937.498334,405.831001 937.447,405.649 C937.395666,405.466999 937.3245,405.320001 937.2335,405.208 C937.1425,405.095999 937.035167,405.0155 936.9115,404.9665 C936.787833,404.9175 936.656001,404.893 936.516,404.893 C936.375999,404.893 936.245334,404.9175 936.124,404.9665 C936.002666,405.0155 935.897667,405.095999 935.809,405.208 C935.720333,405.320001 935.6515,405.466999 935.6025,405.649 C935.5535,405.831001 935.529,406.057332 935.529,406.328 C935.529,406.589335 935.5535,406.807499 935.6025,406.9825 C935.6515,407.157501 935.720333,407.298666 935.809,407.406 C935.897667,407.513334 936.002666,407.590333 936.124,407.637 C936.245334,407.683667 936.375999,407.707 936.516,407.707 C936.656001,407.707 936.787833,407.683667 936.9115,407.637 C937.035167,407.590333 937.1425,407.513334 937.2335,407.406 C937.3245,407.298666 937.395666,407.157501 937.447,406.9825 C937.498334,406.807499 937.524,406.589335 937.524,406.328 Z M942.228,404.151 C942.284,404.081 942.354,404.018 942.438,403.962 C942.522,403.906 942.638666,403.878 942.788,403.878 L944.041,403.878 L936.523,413.741 C936.467,413.815667 936.395834,413.8775 936.3095,413.9265 C936.223166,413.9755 936.119334,414 935.998,414 L934.71,414 L942.228,404.151 Z M944.573,411.62 C944.573,412.002669 944.508834,412.347998 944.3805,412.656 C944.252166,412.964002 944.080668,413.226499 943.866,413.4435 C943.651332,413.660501 943.401668,413.828499 943.117,413.9475 C942.832332,414.066501 942.536002,414.126 942.228,414.126 C941.891998,414.126 941.581668,414.066501 941.297,413.9475 C941.012332,413.828499 940.766168,413.660501 940.5585,413.4435 C940.350832,413.226499 940.188667,412.964002 940.072,412.656 C939.955333,412.347998 939.897,412.002669 939.897,411.62 C939.897,411.227998 939.955333,410.873335 940.072,410.556 C940.188667,410.238665 940.350832,409.970334 940.5585,409.751 C940.766168,409.531666 941.012332,409.362501 941.297,409.2435 C941.581668,409.124499 941.891998,409.065 942.228,409.065 C942.564002,409.065 942.875499,409.124499 943.1625,409.2435 C943.449501,409.362501 943.697999,409.531666 943.908,409.751 C944.118001,409.970334 944.281333,410.238665 944.398,410.556 C944.514667,410.873335 944.573,411.227998 944.573,411.62 Z M943.243,411.62 C943.243,411.349332 943.216167,411.123001 943.1625,410.941 C943.108833,410.758999 943.0365,410.612001 942.9455,410.5 C942.8545,410.387999 942.747167,410.3075 942.6235,410.2585 C942.499833,410.2095 942.368001,410.185 942.228,410.185 C942.087999,410.185 941.957334,410.2095 941.836,410.2585 C941.714666,410.3075 941.610834,410.387999 941.5245,410.5 C941.438166,410.612001 941.369334,410.758999 941.318,410.941 C941.266666,411.123001 941.241,411.349332 941.241,411.62 C941.241,411.881335 941.266666,412.100666 941.318,412.278 C941.369334,412.455334 941.438166,412.597666 941.5245,412.705 C941.610834,412.812334 941.714666,412.889333 941.836,412.936 C941.957334,412.982667 942.087999,413.006 942.228,413.006 C942.368001,413.006 942.499833,412.982667 942.6235,412.936 C942.747167,412.889333 942.8545,412.812334 942.9455,412.705 C943.0365,412.597666 943.108833,412.455334 943.1625,412.278 C943.216167,412.100666 943.243,411.881335 943.243,411.62 Z" id="%"></path>
        </g>
    </g>
</svg>