<?xml version="1.0" encoding="UTF-8"?>
<svg width="15px" height="15px" viewBox="0 0 15 15" version="1.1" xmlns="http://www.w3.org/2000/svg" xmlns:xlink="http://www.w3.org/1999/xlink">
    <!-- Generator: Sketch 55.2 (78181) - https://sketchapp.com -->
    <title>Group 4</title>
    <desc>Created with Sketch.</desc>
    <g id="Page-1-Copy" stroke="none" stroke-width="1" fill="none" fill-rule="evenodd">
        <g id="institutions2" transform="translate(-1013.000000, -193.000000)">
            <g id="Group-4" transform="translate(1013.000000, 193.000000)">
                <g id="Group-5-Copy-20" transform="translate(4.000000, 4.000000)" stroke="#F99E31">
                    <path d="M4.84490106,1.47486859 C4.87820085,0.647208333 4.24295425,0 3.50029813,0 C2.75778371,0 2.11332653,0.652705128 2.1558369,1.47486859 C2.16433897,1.64008654 2.30518999,2.45816667 2.30518999,2.45816667 C2.421385,3.16835256 2.84025382,3.76923077 3.50029813,3.76923077 C4.16048414,3.76923077 4.57099259,3.17746154 4.69554797,2.45816667 C4.69554797,2.45816667 4.8382411,1.64024359 4.84490106,1.47486859 Z" id="Stroke-1"></path>
                    <path d="M7,7 L0,7 L0.168152174,5.62103365 C0.238608696,5.17040865 0.607934783,4.88754808 1.01226087,4.79415865 L3.5,4.30769231 L5.98667391,4.79129808 C6.39769565,4.89394231 6.7613913,5.16401442 6.83184783,5.61867788 L7,7 Z" id="Stroke-3"></path>
                </g>
                <!-- <rect id="Rectangle-2-Copy-20" stroke="#979797" x="0.5" y="0.5" width="14" height="14" rx="4"></rect> -->
            </g>
        </g>
    </g>
</svg>