<?xml version="1.0" encoding="UTF-8"?>
<svg width="16px" height="16px" viewBox="0 0 16 16" version="1.1" xmlns="http://www.w3.org/2000/svg" xmlns:xlink="http://www.w3.org/1999/xlink">
    <!-- Generator: Sketch 51.1 (57501) - http://www.bohemiancoding.com/sketch -->
    <title>Shape Copy 23</title>
    <desc>Created with Sketch.</desc>
    <defs></defs>
    <g id="Web" stroke="none" stroke-width="1" fill="none" fill-rule="evenodd">
        <g id="107-SmartSheets-2-Copy" transform="translate(-540.000000, -16.000000)" fill="#11A0D8">
            <g id="Group-6" transform="translate(529.000000, 9.000000)">
                <g id="search-copy-2" transform="translate(9.000000, 5.000000)">
                    <path d="M13.56425,8.304625 L12.8695,8.304625 L12.628,8.544375 C13.481125,9.53925 14,10.829 14,12.242125 C14,15.383375 11.45375,17.929625 8.3125,17.929625 C5.17125,17.929625 2.625,15.383375 2.625,12.242125 C2.625,9.100875 5.17125,6.554625 8.3125,6.554625 C9.725625,6.554625 11.0145,7.072625 12.009375,7.924875 L12.250875,7.685125 L12.250875,6.992125 L16.624125,2.625 L17.92875,3.929625 L13.56425,8.304625 L13.56425,8.304625 Z M8.3125,8.304625 C6.13725,8.304625 4.375,10.066875 4.375,12.242125 C4.375,14.4165 6.13725,16.179625 8.3125,16.179625 C10.486875,16.179625 12.25,14.4165 12.25,12.242125 C12.25,10.066875 10.486875,8.304625 8.3125,8.304625 L8.3125,8.304625 Z" id="Shape-Copy-23" transform="translate(10.276875, 10.277313) scale(1, -1) translate(-10.276875, -10.277313) "></path>
                </g>
            </g>
        </g>
    </g>
</svg>