<?xml version="1.0" encoding="UTF-8"?>
<svg width="26px" height="25px" viewBox="0 0 26 25" version="1.1" xmlns="http://www.w3.org/2000/svg" xmlns:xlink="http://www.w3.org/1999/xlink">
    <!-- Generator: Sketch 55 (78076) - https://sketchapp.com -->
    <title>Group 11</title>
    <desc>Created with Sketch.</desc>
    <g id="Page-1-Copy" stroke="none" stroke-width="1" fill="none" fill-rule="evenodd">
        <g id="17.2-industry-content-copy-3" transform="translate(-183.000000, -932.000000)" stroke="#C1C1C1" stroke-width="2">
            <g id="Group-11" transform="translate(184.000000, 933.000000)">
                <path d="M19,23 L5,23" id="Stroke-1"></path>
                <path d="M5,22.962125 C9.7535,22.962125 11.7955,16.635125 11.9855,16.011625 C11.99,15.996125 12.01,15.996125 12.0145,16.011625 C12.2045,16.635125 14.2465,22.962125 19,22.962125" id="Stroke-3"></path>
                <path d="M11.5,16 L11.5,16 C7.387,16 4.7845,11.4345 3.993,6.772 L3,0.5035 L11.5,0 L20,0.5035 L19.007,6.772 C18.292,11.303 15.613,16 11.5,16 Z" id="Stroke-5"></path>
                <path d="M12,16 L12.5,16 C18.575,16 23.5,11.075 23.5,5 L23.5,5 L19.75,5" id="Stroke-7"></path>
                <path d="M11.5,16 L11,16 C4.925,16 0,11.075 0,5 L0,5 L3.75,5" id="Stroke-9"></path>
            </g>
        </g>
    </g>
</svg>